<?xml version="1.0" encoding="utf-8"?>
<!-- Generator: Adobe Illustrator 28.4.1, SVG Export Plug-In . SVG Version: 6.00 Build 0)  -->
<svg version="1.0" id="katman_1" xmlns="http://www.w3.org/2000/svg" xmlns:xlink="http://www.w3.org/1999/xlink" x="0px" y="0px"
	 viewBox="0 0 68 68" style="enable-background:new 0 0 68 68;" xml:space="preserve">
<style type="text/css">
	.st0{fill-rule:evenodd;clip-rule:evenodd;}
</style>
<path class="st0" d="M34,66.6C15.97,66.6,1.4,52.03,1.4,34V3.32c0-1.05,0.86-1.92,1.92-1.92H34c18.03,0,32.6,14.57,32.6,32.6
	S52.03,66.6,34,66.6z M34,57.01c12.75,0,23.01-10.26,23.01-23.01S46.75,10.99,34,10.99H12.91c-1.05,0-1.92,0.86-1.92,1.92V34
	C10.99,46.75,21.25,57.01,34,57.01z M14.82,34V14.82H34c10.55,0,19.18,8.63,19.18,19.18S44.55,53.18,34,53.18S14.82,44.55,14.82,34z
	"/>
</svg>
